<svg width="20" height="20" viewBox="0 0 20 20" fill="none" xmlns="http://www.w3.org/2000/svg">
<g clip-path="url(#clip0_2475_58)">
<path fill-rule="evenodd" clip-rule="evenodd" d="M9.9995 18.76L8.10061 19.5464L6.64717 18.0932L4.59191 18.093L3.8052 16.1943L1.90647 15.4076L1.90626 13.3523L0.453125 11.8989L1.23944 9.99999L0.453125 8.10109L1.90626 6.64766L1.90647 4.5924L3.8052 3.80569L4.59191 1.90696L6.64717 1.90675L8.10061 0.453613L9.9995 1.23993L11.8984 0.453613L13.3518 1.90675L15.4071 1.90696L16.1938 3.80569L18.0925 4.5924L18.0927 6.64766L19.5459 8.10109L18.7596 9.99999L19.5459 11.8989L18.0927 13.3523L18.0925 15.4076L16.1938 16.1943L15.4071 18.093L13.3518 18.0932L11.8984 19.5464L9.9995 18.76Z" fill="#2AA7FF" stroke="#F0F0F5" stroke-linecap="round" stroke-linejoin="round"/>
<path d="M6.56082 10.1027C6.31635 9.88304 5.92 9.88304 5.67554 10.1027C5.43107 10.3223 5.43107 10.6784 5.67554 10.898L8.59682 13.5225C8.84129 13.7421 9.23764 13.7421 9.4821 13.5225L15.3247 8.27353C15.5691 8.05391 15.5691 7.69782 15.3247 7.4782C15.0802 7.25857 14.6839 7.25857 14.4394 7.4782L9.03946 12.3295L6.56082 10.1027Z" fill="white" stroke="white" stroke-width="0.5"/>
</g>
<defs>
<clipPath id="clip0_2475_58">
<rect width="20" height="20" fill="white"/>
</clipPath>
</defs>
</svg>
