<svg width="50" height="50" viewBox="0 0 50 50" fill="none" xmlns="http://www.w3.org/2000/svg">
<g clip-path="url(#clip0_32_1189)">
<path d="M9.8671 36.1389C10.2062 35.8055 10.5729 35.5463 10.9487 35.3519C11.0953 35.0185 11.3428 34.7408 11.6453 34.5648C11.6636 33.2315 11.8653 32.0833 12.2411 31.1296C7.94225 33.3333 5 37.8333 5 43.0278C5 49.6759 9.80294 50 16.0907 50C16.7782 50 17.484 50 18.1989 50H31.7919C32.5069 50 33.2126 50 33.9001 50C40.1879 50 45 49.6759 45 43.0278C45 37.7778 41.9936 33.2315 37.6215 31.0555C38.0431 32.0463 38.2905 33.25 38.3455 34.6481C39.7755 34.9815 40.8479 36.2685 40.8479 37.8148C40.8479 39.6111 39.3996 41.0648 37.6306 41.0648C35.8524 41.0648 34.4134 39.6111 34.4134 37.8148C34.4134 36.287 35.4583 35.0093 36.8606 34.6574C36.7965 33.2685 36.4757 31.1574 35.1284 30.1111C34.4409 29.9259 33.7351 29.7963 33.011 29.7315C32.956 32.1666 25 38.1666 25 38.1666C25 38.1666 17.044 32.1666 16.989 29.7315C16.1824 29.8055 15.4033 29.9536 14.6425 30.1666C13.6618 30.9536 13.1576 32.4166 13.1301 34.537C13.4143 34.7036 13.6526 34.9629 13.7901 35.287C14.8442 35.787 15.7791 36.8519 16.494 38.3611C16.6132 38.6204 16.6315 38.9074 16.5399 39.1666C16.9707 40.2778 17.209 41.5 17.209 42.5185C17.209 43.9536 17.209 45.3055 15.66 45.6574C15.495 45.7963 15.2841 45.8796 15.0642 45.8796H14.0468C13.5243 45.8796 13.1027 45.4536 13.1027 44.9259V44.8611C13.1393 44.3704 13.5518 43.9815 14.0376 43.9815H15.0733C15.1833 43.9815 15.2841 44 15.385 44.037C15.4491 44.0185 15.4675 44 15.4675 44C15.5866 43.7963 15.5866 42.9351 15.5866 42.5278C15.5866 41.6944 15.385 40.6944 15.0183 39.7593C14.835 39.6481 14.6792 39.4908 14.5875 39.2963C13.9643 37.9721 13.1118 37.1111 12.4152 37.1111C11.7094 37.1111 10.8112 38.037 10.1879 39.4166C10.0871 39.6389 9.90376 39.824 9.68377 39.9351C9.3538 40.824 9.17965 41.75 9.17965 42.5278C9.17965 42.8704 9.17965 43.787 9.30797 44.0093C9.30797 44.0093 9.33547 44.0278 9.41796 44.0463C9.52795 44.0093 9.63795 43.9815 9.7571 43.9815H10.7929C11.2695 43.9815 11.6728 44.3425 11.7278 44.824L11.7369 44.8333V44.8981C11.7369 45.4629 11.3153 45.8889 10.802 45.8889H9.7571C9.55545 45.8889 9.3538 45.8148 9.18881 45.6944C8.59304 45.5833 8.18056 45.3148 7.91476 44.8889C7.59395 44.3704 7.53895 43.6851 7.53895 42.537C7.53895 41.5278 7.7681 40.3611 8.18974 39.2408C8.12558 39 8.1439 38.75 8.2539 38.5278C8.69386 37.5648 9.25297 36.7408 9.8671 36.1389ZM31.4345 44H38.3639C38.9139 44 39.3537 44.4444 39.3537 45C39.3537 45.5555 38.9139 46 38.3639 46H31.4345C30.8845 46 30.4445 45.5555 30.4445 45C30.4445 44.4444 30.8845 44 31.4345 44Z" fill="#4CD080"/>
<path d="M34.8166 14.6482C34.3584 14.6482 33.68 14.4909 32.9743 13.7316C32.4426 13.315 28.9413 10.6668 25 10.6668C21.0861 10.6668 17.548 13.3242 17.0256 13.7316C16.3198 14.4816 15.6416 14.639 15.1833 14.639C15.1191 14.639 15.0641 14.639 15.0091 14.6297C14.725 14.602 14.4225 14.5001 14.1475 14.3242C14.0559 14.9075 14.0009 15.5001 14.0009 16.1112C14.0009 22.2501 18.9321 31.4909 25.0091 31.4909C31.0861 31.4909 36.0174 22.2501 36.0174 16.1112C36.0174 15.5001 35.9624 14.9075 35.8708 14.3242C35.5958 14.5094 35.2841 14.6112 35 14.639C34.9358 14.6482 34.8808 14.6482 34.8166 14.6482Z" fill="#4CD080"/>
<path d="M37.6305 39.3241C38.4506 39.3241 39.1154 38.6526 39.1154 37.8241C39.1154 36.9957 38.4506 36.3241 37.6305 36.3241C36.8104 36.3241 36.1456 36.9957 36.1456 37.8241C36.1456 38.6526 36.8104 39.3241 37.6305 39.3241Z" fill="#4CD080"/>
<path d="M33.4141 1.67593C33.4141 1.67593 29.3904 0.212963 25.7606 0.0277778C25.504 0.0185185 25.2565 0 24.9999 0C24.7433 0 24.4958 0.0185185 24.2391 0.0185185C20.6094 0.212963 16.5856 1.66666 16.5856 1.66666C15.4948 2.06481 14.6057 3.35185 14.6057 4.52777V12.0741C14.6057 12.75 14.8165 13.1111 15.1373 13.1389C15.1557 13.1389 15.1648 13.1389 15.1832 13.1389C15.4123 13.1389 15.6965 12.9815 16.0081 12.6296C16.0081 12.6296 20.1511 9.16666 24.9999 9.16666C29.8486 9.16666 33.9916 12.6296 33.9916 12.6296C34.3032 12.9815 34.5874 13.1389 34.8165 13.1389C34.8349 13.1389 34.844 13.1389 34.8624 13.1389C35.1831 13.1111 35.394 12.75 35.394 12.0741V4.53704C35.394 3.36111 34.5049 2.06481 33.4141 1.67593ZM27.603 5.63889H26.0356V7.24074C26.0356 7.40741 25.9165 7.53704 25.779 7.53704H24.2299C24.0833 7.53704 23.9733 7.40741 23.9733 7.24074V5.63889H22.4059C22.2501 5.63889 22.1218 5.51851 22.1218 5.37037V3.78704C22.1218 3.63889 22.2501 3.51851 22.4059 3.51851H23.9733V1.92593C23.9733 1.75926 24.0924 1.62962 24.2299 1.62962H25.779C25.9256 1.62962 26.0356 1.75926 26.0356 1.92593V3.52778H27.603C27.7587 3.52778 27.8871 3.64815 27.8871 3.7963V5.37037C27.8871 5.51851 27.7587 5.63889 27.603 5.63889Z" fill="#4CD080"/>
</g>
<defs>
<clipPath id="clip0_32_1189">
<rect width="50" height="50" fill="white"/>
</clipPath>
</defs>
</svg>
