<svg width="50" height="50" viewBox="0 0 50 50" fill="none" xmlns="http://www.w3.org/2000/svg">
<g clip-path="url(#clip0_32_1142)">
<path d="M39.371 2.35939C38.1291 1.17549 36.5351 0.609741 34.9309 0.609741C33.13 0.609741 31.2981 1.33265 29.9422 2.70512L29.3627 3.29183L28.7727 2.70512C27.417 1.33265 25.585 0.609741 23.7842 0.609741C22.1799 0.609741 20.586 1.17549 19.3441 2.35939C16.6117 4.96813 16.5599 9.32653 19.1992 11.9981L29.3627 22.2864L39.5262 11.9981C42.155 9.32653 42.1033 4.96813 39.371 2.35939Z" fill="#2AA7FF"/>
<path d="M49.3479 27.5249C47.7851 26.4562 45.9429 26.7601 44.3179 27.7136C42.6827 28.6565 33.3265 36.7551 33.3265 36.7551H24.1151C23.6907 36.7551 23.225 36.2627 23.225 35.8331C23.225 35.3303 23.6598 34.9321 24.1151 34.9321H29.7454C31.7222 34.9321 33.9267 33.6329 33.9267 31.3176C33.9267 28.8555 31.7222 27.7031 29.7454 27.7031C26.3196 27.7031 25.6572 27.7136 25.6572 27.7136C24.2911 27.7136 22.8938 27.6296 21.8278 27.0534C20.3995 26.3096 18.7539 25.8905 16.9944 25.8905C14.0448 25.8905 11.4055 27.0849 9.59429 28.9603L0 38.5466L10.7121 49.3903L14.2828 45.7757H32.3535C34.1544 45.7757 35.8932 45.1051 37.2283 43.9004L49.4618 30.0079C50.2173 29.327 50.1656 28.0906 49.3479 27.5249Z" fill="#2AA7FF"/>
</g>
<defs>
<clipPath id="clip0_32_1142">
<rect width="50" height="50" fill="white"/>
</clipPath>
</defs>
</svg>
